<svg width="16" height="16" viewBox="0 0 16 16" xmlns="http://www.w3.org/2000/svg">
  <circle cx="8" cy="8" r="7.75" fill="#11100d"/>
  <path d="M5.45 2.7A6 6 0 1 0 10.55 2.7" fill="none" stroke="#b88935" stroke-width="1.15" stroke-linecap="round"/>
  <g fill="#d8b55e">
    <path d="M7.45 12.8c.1-2.35.12-4.12-.18-5.55C6.4 6.5 5.78 5.66 5.5 4.6c1.18.2 2.03.77 2.5 1.66.47-.9 1.32-1.46 2.5-1.66-.28 1.06-.9 1.9-1.77 2.65-.3 1.43-.28 3.2-.18 5.55L8 14l-.55-1.2Z"/>
    <path d="M8 2.05c.72.82 1.05 1.58 1 2.28-.05.7-.39 1.25-1 1.67-.61-.42-.95-.97-1-1.67-.05-.7.28-1.46 1-2.28Z"/>
  </g>
</svg>
